<svg width="57" height="13" viewBox="0 0 57 13" fill="none" xmlns="http://www.w3.org/2000/svg">
<path d="M56.3349 5.05543C56.3341 3.71505 55.8011 2.42984 54.853 1.48237C53.9048 0.534904 52.6193 0.00274678 51.2789 0.00290082H48.3897C48.1988 0.00305266 48.0157 0.0788196 47.8804 0.213631C47.7452 0.348443 47.6688 0.531328 47.668 0.722287V2.88915H51.2795C51.8542 2.88915 52.4053 3.11744 52.8117 3.5238C53.218 3.93017 53.4463 4.48132 53.4463 5.05601V5.77829H56.3355L56.3349 5.05543ZM47.668 9.38857V2.89089H38.2789C38.0876 2.89089 37.9042 2.96674 37.7688 3.10182C37.6334 3.2369 37.5571 3.42017 37.5566 3.61143V5.77829H44.7789V6.86143C44.7789 6.95714 44.7409 7.04892 44.6732 7.11659C44.6055 7.18427 44.5137 7.22229 44.418 7.22229H36.112V2.88915H33.9452C33.8503 2.88915 33.7564 2.90783 33.6688 2.94414C33.5812 2.98044 33.5017 3.03366 33.4346 3.10073C33.3676 3.16781 33.3145 3.24744 33.2782 3.33507C33.242 3.4227 33.2234 3.51661 33.2235 3.61143V12.9983H35.3903C35.5818 12.9981 35.7653 12.9219 35.9007 12.7865C36.036 12.6511 36.112 12.4674 36.112 12.276V10.1109H46.9452C47.1367 10.1109 47.3204 10.0348 47.4559 9.8993C47.5914 9.76384 47.668 9.58013 47.668 9.38857ZM39.7235 1.08314C39.7227 0.796376 39.6082 0.52162 39.4052 0.319118C39.2021 0.116617 38.9271 0.00289979 38.6403 0.00290082C38.3531 0.00290082 38.0775 0.117017 37.8744 0.320145C37.6713 0.523273 37.5572 0.798774 37.5572 1.08604C37.5578 1.3729 37.6722 1.64781 37.8752 1.85044C38.0783 2.05306 38.3535 2.16686 38.6403 2.16686C38.9276 2.16686 39.2031 2.05274 39.4062 1.84962C39.6093 1.64649 39.7235 1.37041 39.7235 1.08314ZM32.5012 11.9169C32.5013 11.6299 32.3876 11.3546 32.1849 11.1514C31.9823 10.9482 31.7073 10.8338 31.4203 10.8331C31.2781 10.8331 31.1373 10.8612 31.0059 10.9156C30.8744 10.97 30.755 11.0498 30.6544 11.1504C30.5539 11.251 30.4741 11.3704 30.4197 11.5018C30.3652 11.6332 30.3372 11.774 30.3372 11.9163C30.3375 12.2033 30.4518 12.4785 30.6549 12.6814C30.858 12.8843 31.1333 12.9983 31.4203 12.9983C31.5626 12.9983 31.7034 12.9702 31.8349 12.9158C31.9663 12.8614 32.0857 12.7816 32.1862 12.681C32.2868 12.5804 32.3666 12.461 32.421 12.3296C32.4755 12.1982 32.5035 12.0574 32.5035 11.9151M30.3366 11.9151C30.3366 11.7728 30.3086 11.6319 30.2541 11.5005C30.1997 11.369 30.1198 11.2496 30.0192 11.149C29.9185 11.0484 29.7991 10.9687 29.6676 10.9143C29.5361 10.8599 29.3952 10.8319 29.2529 10.832C28.9657 10.8321 28.6904 10.9463 28.4874 11.1494C28.2844 11.3525 28.1703 11.628 28.1703 11.9151C28.1703 12.202 28.2841 12.4771 28.4868 12.6802C28.6894 12.8833 28.9643 12.9976 29.2512 12.9983C29.3935 12.9983 29.5344 12.9704 29.6658 12.916C29.7973 12.8616 29.9168 12.7818 30.0174 12.6812C30.1181 12.5806 30.1979 12.4612 30.2524 12.3298C30.3069 12.1983 30.3349 12.0574 30.3349 11.9151M31.7789 9.38741V2.88973H29.612C29.4206 2.88973 29.2369 2.96574 29.1015 3.10107C28.9661 3.2364 28.8899 3.41997 28.8897 3.61143V7.22229H27.4457V2.88915H25.2789C25.184 2.88907 25.09 2.9077 25.0024 2.94397C24.9147 2.98024 24.8351 3.03344 24.768 3.10053C24.7009 3.16761 24.6477 3.24727 24.6114 3.33494C24.5751 3.4226 24.5565 3.51656 24.5566 3.61143V9.74942C24.5566 9.84512 24.5186 9.93691 24.4509 10.0046C24.3832 10.0723 24.2914 10.1103 24.1957 10.1103H23.112V2.88915H20.9452C20.7537 2.8893 20.5701 2.96547 20.4348 3.1009C20.2995 3.23634 20.2235 3.41997 20.2235 3.61143V12.9983H26.7211C26.816 12.9983 26.9099 12.9796 26.9975 12.9433C27.0852 12.907 27.1648 12.8538 27.2319 12.7867C27.2989 12.7196 27.3521 12.64 27.3884 12.5524C27.4247 12.4647 27.4434 12.3708 27.4434 12.276V10.1109H31.0549C31.2463 10.1107 31.4299 10.0345 31.5652 9.89909C31.7005 9.76366 31.7766 9.58003 31.7766 9.38857M24.9174 1.08314C24.9167 0.796376 24.8022 0.52162 24.5992 0.319118C24.3961 0.116617 24.1211 0.00289979 23.8343 0.00290082C23.547 0.00290082 23.2715 0.117017 23.0684 0.320145C22.8653 0.523273 22.7512 0.798774 22.7512 1.08604C22.7518 1.3729 22.8662 1.64781 23.0692 1.85044C23.2723 2.05306 23.5474 2.16686 23.8343 2.16686C24.1216 2.16686 24.3971 2.05274 24.6002 1.84962C24.8033 1.64649 24.9174 1.37041 24.9174 1.08314ZM18.7789 9.38857V2.89089H9.38973C9.19816 2.89089 9.01445 2.96698 8.879 3.10244C8.74354 3.23789 8.66744 3.42161 8.66744 3.61317V5.78003H15.8897V6.86143C15.8897 6.95714 15.8517 7.04892 15.784 7.11659C15.7164 7.18427 15.6246 7.22229 15.5289 7.22229H7.22287V2.88915H5.05601C4.86445 2.88915 4.68073 2.96524 4.54528 3.1007C4.40982 3.23615 4.33372 3.41987 4.33372 3.61143V7.22229H2.88915V2.88915H0.722288C0.530726 2.88915 0.347009 2.96524 0.211554 3.1007C0.0760993 3.23615 0 3.41987 0 3.61143V12.9983H2.16686C2.35832 12.9981 2.54189 12.9219 2.67722 12.7865C2.81255 12.6511 2.88857 12.4674 2.88857 12.276V10.1109H18.0554C18.1504 10.111 18.2444 10.0924 18.3322 10.0562C18.42 10.02 18.4997 9.9668 18.5669 9.89971C18.6341 9.83262 18.6874 9.75295 18.7238 9.66524C18.7602 9.57753 18.7789 9.48352 18.7789 9.38857ZM10.8343 1.08314C10.8343 0.795873 10.7202 0.520372 10.5171 0.317244C10.3139 0.114116 10.0384 0 9.75116 0C9.46384 -4.11701e-08 9.18828 0.114098 8.98506 0.317209C8.78184 0.520321 8.6676 0.79582 8.66744 1.08314C8.6676 1.37046 8.78184 1.64596 8.98506 1.84907C9.18828 2.05218 9.46384 2.16628 9.75116 2.16628C10.0384 2.16628 10.3139 2.05216 10.5171 1.84904C10.7202 1.64591 10.8343 1.37041 10.8343 1.08314ZM3.61201 11.9169C3.61201 12.0591 3.64003 12.1999 3.69446 12.3314C3.7489 12.4628 3.82868 12.5822 3.92926 12.6828C4.02984 12.7833 4.14924 12.8631 4.28066 12.9176C4.41207 12.972 4.55292 13 4.69516 13C4.98232 12.9998 5.25767 12.8857 5.46068 12.6825C5.66368 12.4794 5.77771 12.204 5.77771 11.9169C5.77771 11.6296 5.6636 11.3541 5.46047 11.151C5.25734 10.9478 4.98184 10.8337 4.69458 10.8337C4.40731 10.8337 4.13181 10.9478 3.92868 11.151C3.72555 11.3541 3.61201 11.6296 3.61201 11.9169ZM51.2789 4.33314H49.1149V12.2783C49.1154 12.469 49.1913 12.6518 49.3261 12.7867C49.4609 12.9216 49.6436 12.9976 49.8343 12.9983H52.0012V5.05485C52.001 4.86338 51.9249 4.67982 51.7894 4.54449C51.654 4.40916 51.4703 4.33314 51.2789 4.33314Z" fill="#D50000"/>
</svg>
