<svg width="53" height="13" viewBox="0 0 53 13" fill="none" xmlns="http://www.w3.org/2000/svg">
<g clip-path="url(#clip0_77_57)">
<path d="M37.0668 5.70572C36.6683 4.75313 35.9161 3.98936 34.9662 3.57271C34.2396 3.25252 33.4328 3.15695 32.6507 3.29845C31.8886 3.44416 31.1788 3.78763 30.5935 4.29397C30.2515 4.59933 29.9616 4.95781 29.7352 5.35542L29.7304 5.36509C29.6614 5.48728 29.5976 5.61342 29.5428 5.74177L26.7888 11.2798H26.791L26.7888 11.2837C27.0472 11.2837 29.9914 11.2872 30.8236 11.2894C31.8066 11.3222 32.7906 11.3013 33.7713 11.227C34.7197 11.1311 35.6053 10.7118 36.2775 10.0403C36.7762 9.51754 37.1148 8.86464 37.2539 8.15783C37.4446 7.3423 37.3796 6.48834 37.0677 5.71056L37.0668 5.70572ZM35.2113 7.9473C35.1145 8.23205 34.9527 8.49069 34.7386 8.70304C34.5245 8.91538 34.2638 9.07566 33.977 9.17137C33.5856 9.29793 33.1663 9.31288 32.7667 9.21452C32.3672 9.11616 32.0034 8.90843 31.7168 8.61494C31.5133 8.37686 31.3694 8.09435 31.2969 7.79049C31.2243 7.48663 31.2251 7.17002 31.2991 6.86651C31.3962 6.47942 31.6013 6.12745 31.8909 5.85116C32.1805 5.57487 32.5428 5.3855 32.936 5.30488C33.3559 5.21447 33.794 5.26228 34.1842 5.44108C34.5743 5.61989 34.8952 5.91997 35.0985 6.29601C35.2265 6.55014 35.3026 6.82696 35.3223 7.11048C35.3419 7.39399 35.3048 7.67856 35.2131 7.94774L35.2113 7.9473Z" fill="#FF2640"/>
<path d="M28.0012 7.34847C27.94 6.60099 27.6971 5.87944 27.2934 5.24579C26.8362 4.58928 26.1878 4.08745 25.4353 3.80766C25.3388 3.77206 25.3225 3.7558 25.1552 3.69822L24.2549 5.45148C24.5597 5.58266 24.8537 5.7371 25.1344 5.91342C25.3949 6.0929 25.6047 6.33558 25.7441 6.61837C25.8835 6.90117 25.9477 7.21469 25.9308 7.52912C25.9077 7.83866 25.8087 8.13789 25.6426 8.40074C25.4764 8.66358 25.248 8.88206 24.9774 9.03712C24.6491 9.2144 24.2781 9.29849 23.905 9.28018C22.5203 9.27227 21.1364 9.27798 19.7521 9.28414C19.5413 9.29332 19.3302 9.27559 19.1239 9.23139C18.7386 9.13168 18.395 8.91353 18.142 8.60812C17.889 8.30271 17.7396 7.92567 17.7153 7.53087C17.6985 6.73446 17.7126 5.9376 17.7033 5.14162C17.0349 5.14162 16.366 5.14162 15.6979 5.14162C15.6723 5.79036 15.6833 6.43954 15.6851 7.08871C15.6715 7.46394 15.6946 7.83959 15.7541 8.21038C15.9487 9.1345 16.4716 9.95814 17.2273 10.5306C17.8952 11.0381 18.7145 11.3096 19.5553 11.302C20.6427 11.2963 21.7306 11.3077 22.8189 11.302C23.5511 11.302 25.28 11.2972 26.0095 11.2972L28.0012 7.34847ZM15.6807 2.31152H17.7047V4.15752H15.6807V2.31152ZM18.3019 2.31152H20.3259V4.15752H18.3028L18.3019 2.31152ZM43.324 0.180267H45.348V2.02627H43.324V0.180267ZM45.9452 0.180267H47.9692V2.02627H45.9452V0.180267Z" fill="#FFFFFF"/>
<path d="M38.3414 1.76103L40.3614 0.263128C40.3614 0.263128 40.357 5.337 40.3649 7.65285C40.3546 7.90287 40.4081 8.15142 40.5206 8.37531C40.6331 8.5992 40.8008 8.79113 41.0082 8.93319C41.3458 9.08973 41.7213 9.14766 42.0908 9.10021C41.7373 8.36054 41.6089 7.53441 41.7213 6.72326C41.8205 5.81462 42.2365 4.96908 42.8973 4.33313C43.3998 3.88107 44.001 3.55098 44.6536 3.36881C45.6898 3.0918 46.7931 3.21443 47.742 3.71208C48.3596 4.0464 48.8772 4.537 49.2423 5.13413C49.6075 5.73125 49.8072 6.41368 49.8214 7.11224C49.8494 8.09061 49.5318 9.04788 48.9237 9.81795C48.3214 10.5212 47.4931 10.9963 46.579 11.1629C45.7815 11.2761 44.9748 11.3106 44.1705 11.2657C43.0623 11.249 41.9297 11.3484 40.8476 11.0521C40.1378 10.8549 39.5099 10.4377 39.0554 9.86117C38.6009 9.28467 38.3436 8.57905 38.321 7.84712C38.3189 6.27626 38.3182 4.70526 38.3188 3.1341C38.3237 2.3245 38.3391 1.76147 38.3391 1.76147L38.3414 1.76103ZM45.5787 5.27722C45.1762 5.32097 44.795 5.47937 44.4811 5.73335C44.1671 5.98733 43.9337 6.32606 43.8091 6.70876C43.7117 7.00489 43.6857 7.31961 43.7331 7.62756C43.7805 7.93551 43.9 8.22811 44.082 8.4818C44.3588 8.81827 44.7316 9.06355 45.1514 9.18532C45.5713 9.30709 46.0184 9.29963 46.4338 9.16394C46.6935 9.08361 46.9329 8.94907 47.1359 8.76934C47.3389 8.58961 47.5009 8.36884 47.6111 8.12183C47.7695 7.74737 47.8254 7.33795 47.773 6.93511C47.7257 6.60705 47.596 6.29611 47.3959 6.03095C47.1958 5.76579 46.9318 5.55495 46.6281 5.41787C46.2967 5.28029 45.9352 5.23046 45.5787 5.27327V5.27722ZM50.861 1.70828L53.012 0.185333C53.012 0.185333 53.0142 7.84317 53.016 11.2701C52.301 11.2701 51.5861 11.2846 50.8725 11.2675C50.8681 8.30423 50.861 1.70477 50.861 1.70477V1.70828Z" fill="#FFFFFF"/>
<path d="M9.17216 2.5213C9.26064 2.34549 9.45795 1.96574 9.45795 1.96574C9.45795 1.96574 9.69419 1.97102 9.81187 1.96574C10.4131 1.97146 11.0143 1.96179 11.6151 1.97585C10.6056 4.07019 8.53774 8.24567 8.53774 8.24567C8.53774 8.24567 10.0335 8.2404 10.7821 8.24567C10.8077 6.76096 10.7719 5.2802 10.8068 3.79549C11.4638 3.79549 12.1203 3.79197 12.7773 3.79549C12.7753 5.27698 12.7753 6.75788 12.7773 8.2382C13.2166 8.25314 13.6573 8.23249 14.0966 8.25182C14.0926 8.89924 14.0913 9.5471 14.0988 10.195C13.6595 10.2099 13.2202 10.1994 12.7809 10.2042C12.7658 10.762 12.7809 11.3201 12.7716 11.8783C12.1142 11.8933 11.4567 11.8876 10.7993 11.8823C10.7763 11.3228 10.7993 10.7624 10.7874 10.2029C7.89272 10.1892 4.99717 10.2068 2.10295 10.1932C3.05619 8.29739 4.01473 6.4045 4.97859 4.51455C5.08492 4.32124 5.18048 4.12228 5.26483 3.91855C5.32785 3.68889 5.32756 3.44662 5.26397 3.21711C5.20038 2.9876 5.07583 2.77931 4.90338 2.61404C4.65885 2.38258 4.33595 2.25046 3.99827 2.24371C3.66059 2.23696 3.3326 2.35606 3.0789 2.57756C2.82085 2.82192 2.66633 3.15486 2.64685 3.50849C2.62737 3.86213 2.74439 4.20983 2.97405 4.4807C3.15279 4.64631 3.35452 4.78559 3.57306 4.8943C3.2886 5.47887 3.00811 6.06651 2.68515 6.63174C2.23188 6.44553 1.82443 6.16427 1.49066 5.80719C0.986559 5.19806 0.703692 4.43798 0.687692 3.64956C0.679271 2.85274 0.947894 2.07744 1.44819 1.45458C1.8196 0.980412 2.33574 0.638662 2.91919 0.480592C3.37201 0.335577 3.85069 0.287907 4.32347 0.340746C4.79625 0.393585 5.25231 0.545724 5.66138 0.787064C6.07044 1.0284 6.42316 1.35343 6.69612 1.74056C6.96909 2.12768 7.15604 2.56807 7.24459 3.03247C7.36954 3.68609 7.27309 4.36242 6.9703 4.95583C6.42481 6.05684 5.32366 8.24347 5.32366 8.24347H6.30138" fill="#FFFFFF"/>
</g>
<defs>
<clipPath id="clip0_77_57">
<rect width="53" height="13" fill="white"/>
</clipPath>
</defs>
</svg>
