<svg width="103" height="13" viewBox="0 0 103 13" fill="none" xmlns="http://www.w3.org/2000/svg">
<path fill-rule="evenodd" clip-rule="evenodd" d="M82.4686 2.17186C82.697 2.17468 82.9212 2.11327 83.1125 1.99544C83.3038 1.87762 83.4536 1.70871 83.5429 1.51024C83.6321 1.31177 83.6568 1.09272 83.6137 0.880996C83.5705 0.669268 83.4616 0.474446 83.3007 0.321345C83.1399 0.168244 82.9344 0.0637945 82.7104 0.0213014C82.4865 -0.0211917 82.2542 0.000194521 82.0431 0.0827367C81.8321 0.165279 81.6518 0.305241 81.5254 0.484793C81.3989 0.664346 81.3319 0.875362 81.333 1.09096C81.3328 1.3761 81.4521 1.64973 81.6648 1.8522C81.8776 2.05468 82.1665 2.16958 82.4686 2.17186ZM74.8698 12.9859C75.1384 12.9426 75.382 12.8108 75.5572 12.6139C75.7324 12.417 75.828 12.1679 75.8268 11.9108C75.8257 11.6536 75.7279 11.4053 75.5508 11.2098C75.3738 11.0143 75.1291 10.8845 74.8601 10.8434C74.5629 10.8014 74.2601 10.8702 74.0156 11.0351C73.7712 11.2 73.6042 11.4481 73.5501 11.7271C73.4957 11.4464 73.3271 11.1969 73.0802 11.0321C72.8333 10.8672 72.5278 10.8003 72.2292 10.8454C71.9607 10.8886 71.7171 11.0204 71.5418 11.2172C71.3665 11.4141 71.2709 11.6632 71.272 11.9203C71.2731 12.1774 71.3708 12.4258 71.5478 12.6213C71.7248 12.8168 71.9695 12.9467 72.2384 12.9879C72.5356 13.03 72.8385 12.9613 73.083 12.7964C73.3275 12.6314 73.4945 12.3832 73.5485 12.1042C73.6028 12.385 73.7715 12.6346 74.0186 12.7994C74.2656 12.9643 74.5712 13.0312 74.8698 12.9859ZM63.601 11.2144C63.472 11.0695 63.3048 10.9592 63.1164 10.8947C62.9247 10.8281 62.7172 10.8132 62.5171 10.8515C62.2519 10.9013 62.0138 11.0376 61.8445 11.2366C61.6752 11.4356 61.5857 11.6845 61.5915 11.9396C61.5974 12.1947 61.6983 12.4397 61.8765 12.6316C62.0547 12.8235 62.2988 12.95 62.5661 12.9889C62.8646 13.0276 63.1673 12.9554 63.4105 12.7875C63.6537 12.6196 63.8183 12.3691 63.8697 12.0889C63.9091 12.2828 63.9992 12.4643 64.1319 12.6169C64.261 12.7616 64.4281 12.8716 64.6165 12.9361C64.8082 13.0027 65.0157 13.0175 65.2158 12.9788C65.4815 12.9296 65.7203 12.7936 65.8902 12.5945C66.06 12.3955 66.15 12.1463 66.1442 11.8908C66.1384 11.6353 66.0372 11.39 65.8585 11.198C65.6798 11.006 65.435 10.8797 65.1673 10.8414C64.8688 10.8027 64.566 10.8749 64.3227 11.0428C64.0794 11.2106 63.9147 11.4611 63.8632 11.7413C63.8236 11.5478 63.7335 11.3667 63.601 11.2144ZM75.4568 8.76444C75.1565 9.08104 74.7886 9.3341 74.3774 9.50699C73.9661 9.67988 73.5207 9.76869 73.0705 9.76758C72.6203 9.76648 72.1754 9.67549 71.7651 9.50058C71.3548 9.32568 70.9883 9.07082 70.6898 8.75275C70.3909 9.07098 70.024 9.32586 69.6133 9.50058C69.2025 9.67531 68.7571 9.76591 68.3065 9.76644C67.856 9.76697 67.4104 9.67741 66.9992 9.50365C66.5879 9.32989 66.2203 9.07587 65.9207 8.75834C65.6214 9.0754 65.2544 9.32912 64.8438 9.50286C64.4333 9.67659 63.9884 9.76641 63.5385 9.76641C63.0886 9.76641 62.6437 9.67659 62.2332 9.50286C61.8226 9.32912 61.4557 9.0754 61.1564 8.75834C60.8571 9.0754 60.4901 9.32912 60.0795 9.50286C59.669 9.67659 59.2242 9.76641 58.7742 9.76641C58.3243 9.76641 57.8794 9.67659 57.4689 9.50286C57.0583 9.32912 56.6914 9.0754 56.3921 8.75834C56.0934 9.0747 55.7273 9.32801 55.3178 9.50169C54.9083 9.67537 54.4645 9.76552 54.0155 9.76624C53.5665 9.76696 53.1225 9.67823 52.7123 9.50586C52.3021 9.3335 51.9352 9.08137 51.6353 8.76596L51.5093 8.88488C50.5616 9.78909 49.614 10.6933 48.6663 11.5975C48.626 11.6408 48.5747 11.6736 48.5172 11.6928C48.4597 11.712 48.3979 11.717 48.3378 11.7073C48.1546 11.6828 47.9763 11.6322 47.809 11.5574C47.5683 11.4488 47.3422 11.3135 47.1354 11.1544C47.011 11.0594 47.0084 10.9918 47.1204 10.8846C48.1614 9.8909 49.2042 8.89809 50.2488 7.90613C50.4158 7.76187 50.5547 7.59107 50.6591 7.40151C50.7659 7.1884 50.8182 6.95459 50.8118 6.71892C50.8054 6.48325 50.7404 6.2523 50.6221 6.04466C50.5038 5.83701 50.3355 5.65848 50.1308 5.52344C49.926 5.3884 49.6905 5.30062 49.4433 5.26716C49.1208 5.23039 48.7941 5.28744 48.5069 5.43069C48.2198 5.57394 47.9858 5.79655 47.8364 6.06873C47.6869 6.34091 47.6291 6.64967 47.6707 6.9537C47.7123 7.25772 47.8513 7.54251 48.0691 7.76993C48.1849 7.89291 48.3184 7.99963 48.4417 8.1155C48.6492 8.31131 48.8556 8.50815 49.061 8.706C49.1579 8.79899 49.1568 8.87522 49.0523 8.955C48.7811 9.17318 48.4695 9.34219 48.1332 9.45353C48.0201 9.48542 47.9048 9.50954 47.788 9.52569C47.7457 9.53278 47.7021 9.52975 47.6613 9.51688C47.6205 9.50401 47.5837 9.48171 47.5544 9.452C47.2781 9.18216 46.9836 8.92756 46.7354 8.63587C46.2223 8.03813 45.9776 7.27455 46.0537 6.50864C46.107 5.77387 46.4442 5.08312 47.0013 4.56737C47.5584 4.05162 48.2967 3.74673 49.0761 3.71051C49.8556 3.6743 50.622 3.90927 51.2301 4.37088C51.8381 4.83249 52.2456 5.48864 52.3752 6.21491C52.4032 6.37092 52.4123 6.52947 52.4242 6.68701C52.4343 6.96888 52.5134 7.24472 52.6552 7.49298C52.8148 7.75567 53.0559 7.96597 53.3459 8.09562C53.6359 8.22528 53.961 8.26809 54.2775 8.2183C54.594 8.16851 54.8868 8.02851 55.1166 7.8171C55.3464 7.60569 55.5021 7.33299 55.5629 7.03562C55.5779 6.95971 55.5853 6.88264 55.5849 6.80542C55.5898 6.40751 55.5903 6.00961 55.5935 5.61171C55.5935 5.48314 55.6576 5.42317 55.7836 5.4374C56.0967 5.46514 56.4033 5.53852 56.6925 5.6549C56.8145 5.71302 56.933 5.77749 57.0474 5.84801C57.1041 5.87897 57.1501 5.92465 57.1801 5.9796C57.2101 6.03455 57.2227 6.09647 57.2165 6.158C57.2111 6.35822 57.2165 6.55946 57.2165 6.76019C57.2119 6.9472 57.2478 7.13312 57.3218 7.30663C57.3959 7.48013 57.5066 7.6376 57.6472 7.76943C57.8448 7.96628 58.0957 8.1082 58.3728 8.17973C58.6499 8.25125 58.9425 8.24963 59.2187 8.17504C59.4949 8.10046 59.7441 7.95576 59.9392 7.75673C60.1342 7.5577 60.2677 7.31196 60.325 7.04629C60.3739 6.84112 60.3761 6.6285 60.3316 6.42244C60.2871 6.21639 60.1968 6.02157 60.0667 5.85083C59.9366 5.6801 59.7697 5.53731 59.5769 5.43189C59.3841 5.32647 59.1698 5.2608 58.9482 5.23921C58.8717 5.23261 58.7941 5.22803 58.7166 5.22803H55.8138C55.6124 5.22803 55.5742 5.19297 55.5984 5.00494C55.6268 4.7103 55.7063 4.42205 55.8337 4.15171C55.8958 4.03611 55.9658 3.92441 56.0432 3.81733C56.0731 3.7727 56.1153 3.73656 56.1653 3.71276C56.2152 3.68895 56.2711 3.67838 56.3269 3.68216C56.4825 3.68216 56.6371 3.68216 56.7927 3.68216C57.4572 3.68216 58.1216 3.68216 58.785 3.68216C59.2487 3.67861 59.707 3.77617 60.1241 3.96724C60.6076 4.17795 61.0269 4.50027 61.3434 4.90441C61.6599 5.30855 61.8634 5.78147 61.935 6.27945C61.9605 6.436 61.9733 6.59417 61.9732 6.75256C61.9751 7.12853 62.1278 7.48987 62.4005 7.76386C62.6733 8.03785 63.046 8.20414 63.4435 8.22926C63.8409 8.25438 64.2337 8.13646 64.5428 7.89925C64.8519 7.66203 65.0543 7.32313 65.1092 6.95075C65.1153 6.90543 65.118 6.85974 65.1173 6.81405C65.1173 5.85631 65.1173 4.8984 65.1173 3.94031C65.1173 3.73704 65.1533 3.70045 65.3628 3.72383C65.6611 3.7522 65.9527 3.82474 66.227 3.93879C66.3455 3.99562 66.4604 4.05891 66.5711 4.12834C66.6275 4.15986 66.6732 4.2058 66.703 4.26084C66.7329 4.31588 66.7456 4.37777 66.7397 4.43934C66.7353 4.61161 66.7397 4.78439 66.7397 4.95667C66.7397 5.54852 66.7397 6.14021 66.7397 6.73173C66.7392 6.92703 66.7794 7.12051 66.8582 7.30112C66.9369 7.48173 67.0525 7.64594 67.1985 7.78437C67.3445 7.92279 67.5179 8.03273 67.7089 8.1079C67.8999 8.18307 68.1047 8.222 68.3117 8.22247C68.5186 8.22293 68.7236 8.18493 68.915 8.11062C69.1064 8.03632 69.2804 7.92717 69.427 7.7894C69.5737 7.65163 69.6902 7.48795 69.7699 7.30769C69.8495 7.12744 69.8907 6.93414 69.8912 6.73884C69.8912 4.58722 69.8912 2.43594 69.8912 0.284994C69.8912 0.249422 69.8912 0.214358 69.8912 0.179293C69.895 0.0664782 69.9478 0.010579 70.0619 0.0217589C70.5218 0.0457093 70.9664 0.186144 71.3489 0.4283C71.4029 0.46237 71.4466 0.509176 71.4756 0.564082C71.5046 0.618989 71.5179 0.680091 71.5142 0.741338C71.5109 1.6215 71.5142 2.50166 71.5142 3.38386C71.5142 4.49677 71.5142 5.6095 71.5142 6.72207C71.5072 7.09951 71.6525 7.46534 71.9206 7.74551C72.1886 8.02567 72.5595 8.19924 72.9581 8.23109C73.3566 8.26293 73.7531 8.15066 74.0673 7.917C74.3814 7.68335 74.5898 7.34577 74.6502 6.9726C74.6561 6.9271 74.6582 6.88122 74.6566 6.8354C74.6566 5.88138 74.6566 4.92702 74.6566 3.97233C74.6566 3.94438 74.6566 3.91592 74.6566 3.88797C74.6598 3.75838 74.7132 3.70706 74.8499 3.72027C75.2155 3.74754 75.5719 3.84233 75.8988 3.99926C75.9887 4.04763 76.0751 4.10161 76.1573 4.16086C76.194 4.18528 76.224 4.21762 76.2448 4.25519C76.2656 4.29275 76.2766 4.33446 76.2768 4.37684C76.2768 4.41902 76.2768 4.46119 76.2768 4.50337C76.2768 5.24633 76.2768 5.9903 76.2768 6.73325C76.2757 7.05322 76.3828 7.36518 76.5826 7.62368C76.7824 7.88218 77.0645 8.07372 77.3877 8.17038C77.5357 8.21459 77.6901 8.23721 77.8454 8.23746C79.4112 8.23746 80.977 8.23746 82.5429 8.23746C82.8018 8.24894 83.0599 8.20318 83.2967 8.10381C83.5764 7.98764 83.8135 7.79625 83.9785 7.55356C84.1436 7.31088 84.2291 7.02767 84.2245 6.73935C84.2337 6.54258 84.2258 6.34542 84.2008 6.14987C84.1426 5.80812 83.9595 5.49637 83.6832 5.26868C83.407 5.04099 83.055 4.91171 82.6884 4.90326C82.3217 4.89481 81.9635 5.00772 81.6758 5.22242C81.3881 5.43712 81.1891 5.74006 81.1133 6.07872C81.0898 6.18178 81.0777 6.28686 81.0772 6.39227C81.0725 6.71276 81.0725 7.03325 81.0772 7.35374C81.0808 7.41506 81.0675 7.47621 81.0386 7.53124C81.0098 7.58628 80.9663 7.63332 80.9124 7.66779C80.6647 7.83449 80.3825 7.95015 80.0843 8.00725C79.9367 8.03856 79.7873 8.0618 79.6368 8.07687C79.5097 8.09059 79.4548 8.04181 79.4548 7.92442C79.4548 7.36797 79.443 6.81101 79.4613 6.25506C79.494 5.52557 79.805 4.83184 80.3372 4.30182C80.8693 3.77181 81.5865 3.44126 82.3566 3.37116C83.1482 3.30319 83.9382 3.5173 84.5709 3.97136C85.2037 4.42542 85.6335 5.08654 85.7758 5.82463C85.8113 6.0222 85.8316 6.22192 85.8366 6.42225C85.8505 6.67544 85.839 6.92931 85.8022 7.18045C85.6994 7.83784 85.3692 8.44474 84.8631 8.90673C84.344 9.39448 83.6598 9.69451 82.93 9.75437C82.7685 9.76961 82.607 9.76504 82.4454 9.76504C80.9273 9.76504 79.4094 9.76504 77.8917 9.76504C77.4462 9.77237 77.0042 9.69041 76.5947 9.52458C76.1853 9.35876 75.8178 9.11284 75.5165 8.80306C75.5063 8.7934 75.4966 8.78273 75.4853 8.77308C75.4761 8.76931 75.4665 8.76642 75.4568 8.76444Z" fill="#FFFFFF"/>
<path fill-rule="evenodd" clip-rule="evenodd" d="M32.834 6.59555C32.834 6.68092 32.8307 6.76681 32.8237 6.84964C32.8646 7.0008 32.9245 7.14683 33.002 7.28464C33.1697 7.5684 33.4261 7.79638 33.7362 7.93745C34.0463 8.07852 34.3951 8.1258 34.7347 8.07282C35.0757 8.01533 35.39 7.86139 35.6361 7.63141C35.8822 7.40143 36.0484 7.10627 36.1126 6.7851C36.129 6.70129 36.1373 6.61624 36.1374 6.53101V5.23618C36.1374 5.09643 36.2074 5.03291 36.3393 5.04815C36.6749 5.07804 37.0035 5.15761 37.3129 5.28395C37.4423 5.34845 37.5681 5.41918 37.6898 5.49586C37.7508 5.52972 37.8003 5.57932 37.8324 5.63883C37.8646 5.69834 37.878 5.76527 37.8713 5.83176V6.48731C37.8705 6.73337 37.9302 6.97626 38.0456 7.19692C38.161 7.41757 38.3289 7.61 38.5363 7.75912C38.7437 7.90824 38.9849 8.00999 39.241 8.05639C39.497 8.10279 39.761 8.09259 40.0122 8.02658C40.3178 7.95509 40.5947 7.80084 40.8087 7.5828C41.0227 7.36476 41.1645 7.09243 41.2167 6.79933C41.2681 6.57547 41.2698 6.34398 41.2217 6.11946C41.1736 5.89495 41.0768 5.68227 40.9372 5.49484C40.7999 5.31062 40.6224 5.15633 40.4166 5.04237C40.2107 4.92841 39.9814 4.85743 39.744 4.83421H36.3765C36.1611 4.83421 36.1207 4.79406 36.1455 4.59028C36.1769 4.27055 36.2618 3.95754 36.397 3.66286C36.4632 3.53732 36.5376 3.4158 36.6199 3.299C36.6522 3.25096 36.6976 3.21194 36.7513 3.18594C36.8049 3.15995 36.865 3.14793 36.9252 3.15113H39.5696C40.0673 3.14795 40.5589 3.2548 41.0051 3.46315C41.6033 3.74136 42.1061 4.17331 42.4557 4.7093C42.8053 5.24529 42.9875 5.86353 42.9812 6.4929C42.9963 6.89264 42.9275 7.29125 42.7789 7.66582C42.6302 8.04039 42.4045 8.38353 42.1148 8.67552C41.7975 9.01942 41.4058 9.29512 40.966 9.48404C40.5263 9.67297 40.0487 9.77072 39.5655 9.77072C39.0823 9.77072 38.6048 9.67297 38.165 9.48404C37.7252 9.29512 37.3335 9.01942 37.0162 8.67552C36.7055 9.01112 36.3238 9.28154 35.8956 9.46936C35.4674 9.65719 35.0022 9.75823 34.5301 9.76599C34.058 9.77374 33.5894 9.68804 33.1545 9.5144C32.7196 9.34075 32.3281 9.08303 32.0053 8.75784C31.9069 8.86876 31.801 8.9735 31.6881 9.07139C31.3926 9.35645 31.0359 9.57854 30.6419 9.72272C30.248 9.86691 29.8259 9.92986 29.404 9.90734H26.2987C26.1695 9.90734 26.107 9.84737 26.1194 9.73151C26.1475 9.25589 26.3069 8.79548 26.5819 8.39602C26.6209 8.34156 26.6738 8.29724 26.7357 8.26713C26.7976 8.23703 26.8666 8.22211 26.9362 8.22375H29.3706C29.8051 8.22267 30.2234 8.0678 30.5427 7.78976C30.8621 7.51172 31.0593 7.13073 31.0955 6.72209C31.1316 6.31344 31.004 5.90687 30.7378 5.58273C30.4717 5.25858 30.0864 5.04044 29.6581 4.97142C29.5989 4.95007 28.235 4.96684 27.9038 4.97142H27.8328C27.6868 4.97142 27.6287 4.91145 27.6411 4.7717C27.6724 4.39334 27.7799 4.02409 27.9577 3.68369C28.013 3.59095 28.0743 3.50151 28.1413 3.41589C28.1688 3.3781 28.2055 3.34711 28.2483 3.32553C28.2911 3.30395 28.3388 3.29241 28.3874 3.29189H29.3878C30.2398 3.27872 31.0641 3.57678 31.6887 4.12378C32.0503 4.43864 32.3388 4.82087 32.5359 5.24633C32.7331 5.67178 32.8346 6.1312 32.834 6.59555ZM1.1408 8.93926C0.780921 8.6236 0.493875 8.24129 0.29759 7.81622C0.101306 7.39114 0 6.93244 0 6.46876C0 6.00508 0.101306 5.54637 0.29759 5.1213C0.493875 4.69623 0.780921 4.31393 1.1408 3.99826C1.42251 3.71507 1.7664 3.49343 2.14841 3.34886C2.53041 3.20428 2.94128 3.14026 3.35225 3.16129H5.19917C5.25455 3.14837 5.31224 3.14698 5.36824 3.15722C5.70163 3.18843 6.02738 3.27082 6.33262 3.40115C6.46299 3.46553 6.58888 3.53767 6.70954 3.61712C6.76013 3.64964 6.80091 3.69398 6.8279 3.74582C6.8549 3.79766 6.86718 3.85522 6.86354 3.91288V6.46342C6.86493 6.6061 6.85629 6.7487 6.8377 6.89029C6.89154 7.61648 7.69923 8.16633 8.50692 8.28117L8.62807 8.30658L18.5072 8.27711C18.6924 8.24987 18.8709 8.19153 19.0343 8.10484C19.2824 7.99682 19.4989 7.83354 19.6653 7.62906C19.8317 7.42457 19.943 7.185 19.9896 6.93095C19.9937 6.8819 19.9937 6.83262 19.9896 6.78358V5.58733C19.9896 5.44809 20.0526 5.39219 20.2001 5.40438C20.6084 5.43516 21.0069 5.53861 21.3745 5.70929C21.4725 5.76162 21.5668 5.82002 21.6566 5.8841C21.6967 5.91051 21.7295 5.94562 21.7521 5.98648C21.7748 6.02734 21.7868 6.07275 21.7869 6.11888V6.67788C21.7968 7.49309 21.4778 8.28135 20.8947 8.88286L20.8694 8.90877C20.8471 8.98488 20.8018 9.05322 20.7391 9.10544C20.4239 9.36657 20.0603 9.57039 19.6665 9.70661C19.4519 9.79233 19.2288 9.85754 19.0004 9.90124C18.9317 9.91501 18.8605 9.91257 18.7931 9.89413C18.6648 9.90594 18.5359 9.91103 18.407 9.90937H8.62484L8.54784 9.84178L8.543 9.90988C8.03802 9.92951 7.53535 9.8354 7.07655 9.63534C6.61775 9.43527 6.21601 9.13501 5.90455 8.75937C5.38196 9.28395 4.68583 9.62517 3.93056 9.72694C3.75256 9.75436 3.57245 9.76779 3.3921 9.76708C2.97298 9.78181 2.55514 9.71487 2.16465 9.57043C1.77416 9.42599 1.41939 9.20715 1.12249 8.92757L1.1408 8.93926ZM5.1114 6.66771C5.08918 6.73125 5.07685 6.7975 5.07478 6.86438C4.98201 7.23658 4.75323 7.56603 4.42863 7.79485C4.23651 7.92944 4.01587 8.02331 3.78178 8.07006C3.5477 8.1168 3.30568 8.11532 3.07225 8.06571C2.76496 8.01092 2.48101 7.87345 2.25459 7.66987C2.02818 7.46628 1.86896 7.20526 1.79611 6.91824C1.69991 6.63343 1.69156 6.32868 1.77203 6.03956C1.8525 5.75044 2.01848 5.48889 2.25056 5.28547C2.39766 5.14063 2.57517 5.02636 2.77173 4.94997C2.96829 4.87358 3.17959 4.83675 3.3921 4.84183H5.05647C5.07583 4.84328 5.09527 4.84328 5.11463 4.84183V6.6357L5.1114 6.66771ZM21.7805 9.12322C22.122 9.16382 22.4683 9.10006 22.7685 8.9413C23.0163 8.83426 23.2328 8.67192 23.3992 8.46828C23.5656 8.26465 23.677 8.02584 23.7238 7.77249C23.7282 7.72175 23.7282 7.67077 23.7238 7.62004V4.45612C23.7238 4.31739 23.7825 4.262 23.9343 4.27826C24.3423 4.30623 24.7407 4.40839 25.1076 4.5791C25.206 4.63063 25.3003 4.68889 25.3898 4.75341C25.4295 4.77892 25.4621 4.81314 25.4848 4.85314C25.5075 4.89314 25.5196 4.93773 25.5201 4.9831V7.52399C25.54 8.33984 25.225 9.13137 24.6408 9.73304C24.1394 10.2516 23.4764 10.6064 22.7475 10.7463C22.4616 10.7941 22.3943 10.6239 22.3943 10.6239L21.6712 9.32141C21.6712 9.32141 21.5532 9.14355 21.7789 9.14355L21.7805 9.12322Z" fill="#E77D44"/>
<path fill-rule="evenodd" clip-rule="evenodd" d="M97.1855 12.8874C97.4671 12.7858 97.7396 12.6643 98.0104 12.5388C98.7643 12.1897 99.4966 11.804 100.218 11.4005C100.78 11.0864 101.334 10.7612 101.869 10.407C102.06 10.2852 102.242 10.1527 102.416 10.0101C102.487 9.94843 102.554 9.88312 102.617 9.81448C102.675 9.75242 102.715 9.67707 102.732 9.59596C102.867 9.04416 102.852 8.46942 102.691 7.92406C102.518 7.3432 102.219 6.80262 101.813 6.33651C101.806 6.32787 101.795 6.32076 101.771 6.2984C101.781 6.34668 101.79 6.37463 101.793 6.40359C101.799 6.44415 101.8 6.48519 101.797 6.52606C101.78 6.67926 101.706 6.82186 101.589 6.92956C101.501 7.01245 101.407 7.0897 101.309 7.16078C101.138 7.28376 100.965 7.40318 100.788 7.5165C100.124 7.94693 99.4379 8.34432 98.7455 8.73104C97.9507 9.17468 95.8405 10.2393 95.8405 10.2393C96.3288 10.4933 96.7211 10.8848 96.9624 11.3593C97.2037 11.8337 97.2821 12.3674 97.1866 12.8859L97.1855 12.8874Z" fill="#E77D44"/>
<path fill-rule="evenodd" clip-rule="evenodd" d="M94.6295 11.431L93.4858 12.7385C93.4653 12.7618 93.4523 12.7901 93.4482 12.8201C93.4442 12.8501 93.4493 12.8806 93.463 12.908C93.4767 12.9354 93.4984 12.9585 93.5255 12.9747C93.5526 12.9908 93.584 12.9993 93.6161 12.9992H95.3957C95.4518 12.6953 95.4085 12.3825 95.2716 12.1024C95.1348 11.8222 94.9108 11.5881 94.6295 11.431Z" fill="#E77D44"/>
<path fill-rule="evenodd" clip-rule="evenodd" d="M101.813 6.33702C101.805 6.32838 101.795 6.32127 101.771 6.2984C101.781 6.34668 101.79 6.37514 101.793 6.40359C101.799 6.44416 101.801 6.48519 101.798 6.52607C101.78 6.67924 101.706 6.82181 101.59 6.92956C101.502 7.01267 101.408 7.09009 101.309 7.16129C101.138 7.28376 100.965 7.40369 100.788 7.51701C100.304 7.8331 99.802 8.13089 99.2964 8.42004C101.762 8.0008 102.504 8.98463 102.727 9.61273C102.727 9.60714 102.731 9.60105 102.732 9.59495C102.866 9.04312 102.852 8.46844 102.691 7.92304C102.518 7.34276 102.218 6.80273 101.813 6.33702Z" fill="#E46E38"/>
<path fill-rule="evenodd" clip-rule="evenodd" d="M102.918 8.67818C102.887 8.65887 102.891 8.63397 102.889 8.61161C102.882 8.46208 102.862 8.31338 102.829 8.16695C102.699 7.51533 102.403 6.90328 101.967 6.38376C101.77 6.15201 101.539 5.94818 101.281 5.77852C100.958 5.56763 100.635 5.35775 100.309 5.15651C99.5085 4.66511 98.6878 4.20622 97.857 3.76309C97.1839 3.4033 96.5039 3.0552 95.8109 2.73353C95.5416 2.60953 95.2724 2.48757 94.9951 2.38695C94.8939 2.34955 94.7907 2.31698 94.686 2.28938C94.5531 2.25517 94.4127 2.25746 94.2811 2.29599C94.2065 2.31732 94.1376 2.35354 94.0792 2.40219C94.0636 2.4149 94.0474 2.42659 94.0221 2.4459C94.0233 2.43099 94.0259 2.4162 94.0296 2.40169C94.3112 1.67847 94.7997 1.04309 95.4409 0.56615C95.775 0.325669 96.1512 0.142322 96.5523 0.0244336C96.6663 -0.00670175 96.7871 -0.00810667 96.9018 0.0203682C97.056 0.0555092 97.2066 0.10329 97.3519 0.163166C97.7197 0.305964 98.0767 0.471629 98.4289 0.643901C99.5205 1.17439 100.581 1.76016 101.606 2.39864C101.852 2.55109 102.094 2.71269 102.325 2.88598C102.43 2.96435 102.529 3.04923 102.622 3.14007C102.691 3.20782 102.742 3.29075 102.769 3.38145C102.826 3.57648 102.865 3.77598 102.884 3.97754C102.963 4.7309 103.001 5.48752 102.999 6.24452C103.003 6.78166 102.999 7.3183 102.973 7.85493C102.961 8.11868 102.94 8.38191 102.922 8.64515C102.921 8.65622 102.92 8.66725 102.918 8.67818Z" fill="#ED9847"/>
<path fill-rule="evenodd" clip-rule="evenodd" d="M93.4503 9.16753C93.4709 9.19029 93.4984 9.20646 93.5291 9.2138C93.5598 9.22115 93.5922 9.21931 93.6217 9.20855C93.6513 9.19778 93.6766 9.17861 93.6941 9.15369C93.7116 9.12878 93.7205 9.09934 93.7195 9.06945C93.6915 8.53281 93.6463 7.66637 93.6415 7.46564C93.6194 6.61699 93.6285 5.76884 93.6555 4.92069C93.6727 4.38609 93.7093 3.85352 93.7529 3.31943C93.7637 3.1812 93.7766 3.04196 93.7998 2.90475C93.8619 2.53919 93.9893 2.18623 94.1767 1.86096C94.5073 1.2758 94.9818 0.774066 95.5605 0.397917C95.5826 0.383688 95.6144 0.375049 95.6235 0.337952C95.6155 0.338524 95.6076 0.339714 95.5998 0.341509C95.5099 0.382163 95.42 0.421801 95.3306 0.463472C94.2555 0.97246 93.2094 1.53443 92.1968 2.14706C91.8532 2.35389 91.5151 2.56783 91.192 2.8021C91.0614 2.89455 90.9386 2.9965 90.8248 3.10701C90.7544 3.18455 90.7023 3.27532 90.6719 3.37329C90.6455 3.46781 90.6218 3.56386 90.6035 3.66041C90.56 3.91291 90.5302 4.16732 90.5141 4.42268C90.4839 4.79704 90.4649 5.17207 90.457 5.54778C90.4425 6.21146 90.4689 8.23553 90.4812 9.10502C90.4818 9.13483 90.4922 9.16373 90.5108 9.18779C90.5295 9.21185 90.5555 9.2299 90.5855 9.23946C90.6154 9.24902 90.6477 9.24963 90.678 9.24121C90.7083 9.2328 90.7351 9.21576 90.7548 9.19243L91.9728 7.75734C91.9871 7.74067 92.0052 7.72723 92.0257 7.71799C92.0463 7.70876 92.0688 7.70397 92.0915 7.70397C92.1143 7.70397 92.1367 7.70876 92.1572 7.71799C92.1778 7.72723 92.1959 7.74067 92.2102 7.75734L93.4503 9.16753Z" fill="#F5BD44"/>
<path fill-rule="evenodd" clip-rule="evenodd" d="M95.826 10.2403L94.6322 11.432C94.901 11.5872 95.1168 11.8121 95.2539 12.0799C95.391 12.3477 95.4436 12.6471 95.4054 12.9423L95.3979 12.9997L97.185 12.8874C97.2856 12.3571 97.2006 11.8104 96.9427 11.3298C96.7183 10.8537 96.3227 10.4678 95.826 10.2403Z" fill="white"/>
</svg>
