<svg width="88" height="13" viewBox="0 0 88 13" fill="none" xmlns="http://www.w3.org/2000/svg">
<g clip-path="url(#clip0_77_112)">
<path d="M6.84991 0.0216163C7.65281 0.089698 8.43609 0.314428 9.1843 0.635557C9.97769 0.975966 10.714 1.49471 11.2857 2.14902C11.6471 2.56233 11.9448 3.03047 12.1766 3.53054C13.5928 6.58458 11.7439 10.1333 8.45154 10.6147C6.3198 10.9267 4.5078 10.252 3.20094 8.4746C2.4135 7.40337 2.13715 6.16464 2.48244 4.84578C2.76948 3.74744 3.7572 2.78827 5.01176 2.87804C5.45035 2.90937 5.88775 3.10879 6.195 3.31304C6.2574 3.35461 6.33704 3.36003 6.4036 3.32629C6.83089 3.11 7.19223 2.94552 7.60823 2.8937C8.76057 2.74971 9.78573 3.65043 10.134 4.70359C10.6225 6.18151 9.94025 7.70943 8.52642 8.31373C8.41826 8.36012 8.30415 8.39507 8.18945 8.42339C7.84179 8.50894 7.56188 8.3794 7.45966 8.09322C7.36101 7.81607 7.48521 7.54796 7.80019 7.3865C8.22689 7.16839 8.62329 6.91715 8.88418 6.4924C9.3519 5.73084 9.15816 4.71263 8.44322 4.20051C8.08486 3.94385 7.70273 3.8848 7.30336 4.09206C7.16489 4.16376 7.02761 4.24931 6.91053 4.35174C6.29959 4.88675 6.35902 4.92109 5.70352 4.35294C4.88398 3.6426 4.10486 4.02338 3.73105 4.76806C3.32277 5.58082 3.40954 6.40082 3.76433 7.1937C4.40261 8.62221 5.56089 9.35364 7.05435 9.54643C8.63933 9.75128 9.95332 9.2241 10.8668 7.86608C11.8949 6.33755 11.675 4.18665 10.3961 2.8437C8.24294 0.582538 4.50304 0.538556 2.31485 2.77079C1.39309 3.71068 1.0383 4.88193 1.14527 6.19356C1.26532 7.66666 1.84595 8.91984 2.92519 9.92781C3.12784 10.117 3.20867 10.3429 3.11714 10.6285C3.02206 10.9255 2.91211 11.2467 2.85565 11.5576C2.84733 11.6046 2.89012 11.6449 2.93588 11.6329C3.01195 11.613 3.09753 11.5708 3.15696 11.5485C3.27226 11.5057 3.38517 11.4575 3.4963 11.4045C3.69123 11.3111 3.87903 11.2027 4.05732 11.0798C4.22016 10.9671 4.39012 10.8448 4.59456 10.8364C4.83466 10.8267 5.03078 10.9527 5.10982 11.2063C5.28454 11.7654 4.66291 11.9636 4.28137 12.1685C3.78989 12.4324 3.28058 12.6698 2.74452 12.8246C2.48541 12.8999 2.22095 12.9529 1.95351 12.9879C1.80078 13.0078 1.60407 13.0174 1.49412 12.8849C1.38418 12.7523 1.41865 12.5426 1.46025 12.389C1.58802 11.9185 1.70213 11.4431 1.84951 10.9786C1.92974 10.7249 1.89765 10.5526 1.71104 10.3471C0.567024 9.08794 0.0196783 7.56785 6.65547e-05 5.87845C-0.0237053 3.75467 0.932516 2.14962 2.70708 1.04284C3.65736 0.449989 4.75918 0.11199 5.86873 0.0198088C6.19797 -0.0079059 6.52543 -0.00549593 6.84991 0.0216163Z" fill="url(#paint0_linear_77_112)"/>
</g>
<path d="M18.8612 11.0861C18.3088 11.0861 17.821 10.9749 17.3978 10.7525C16.9746 10.5301 16.6446 10.2217 16.4079 9.82716C16.1784 9.42545 16.0636 8.96277 16.0636 8.43912V6.02888C16.0636 5.50523 16.1784 5.04255 16.4079 4.64084C16.6446 4.23913 16.9746 3.93068 17.3978 3.71548C17.821 3.49311 18.3088 3.38192 18.8612 3.38192C19.4064 3.38192 19.887 3.48952 20.303 3.70472C20.7262 3.91992 21.0526 4.21403 21.2822 4.58704C21.5189 4.95288 21.6373 5.36176 21.6373 5.81368V5.889C21.6373 5.92487 21.6229 5.95715 21.5942 5.98584C21.5727 6.00736 21.544 6.01812 21.5081 6.01812H20.2492C20.2134 6.01812 20.1811 6.00736 20.1524 5.98584C20.1309 5.95715 20.1201 5.92487 20.1201 5.889V5.85672C20.1201 5.52675 20.0053 5.25057 19.7758 5.0282C19.5462 4.79865 19.2414 4.68388 18.8612 4.68388C18.4738 4.68388 18.1618 4.80583 17.9251 5.04972C17.6955 5.28644 17.5807 5.59848 17.5807 5.98584V8.48216C17.5807 8.86952 17.7063 9.18515 17.9573 9.42904C18.2084 9.66576 18.5276 9.78412 18.915 9.78412C19.288 9.78412 19.5857 9.68728 19.8081 9.4936C20.0304 9.29275 20.1416 9.01657 20.1416 8.66508V8.18088C20.1416 8.14501 20.1237 8.12708 20.0878 8.12708H18.8827C18.8468 8.12708 18.8146 8.11632 18.7859 8.0948C18.7643 8.06611 18.7536 8.03383 18.7536 7.99796V7.00804C18.7536 6.97217 18.7643 6.94348 18.7859 6.92196C18.8146 6.89327 18.8468 6.87892 18.8827 6.87892H21.5081C21.544 6.87892 21.5727 6.89327 21.5942 6.92196C21.6229 6.94348 21.6373 6.97217 21.6373 7.00804V8.42836C21.6373 8.97353 21.5225 9.44697 21.2929 9.84868C21.0634 10.2504 20.737 10.5588 20.3138 10.774C19.8977 10.9821 19.4135 11.0861 18.8612 11.0861ZM24.8801 5.38328C25.3463 5.38328 25.7624 5.46577 26.1282 5.63076C26.4941 5.78857 26.7774 6.00736 26.9783 6.28712C27.1863 6.56688 27.2903 6.87892 27.2903 7.22324V10.8709C27.2903 10.9067 27.276 10.939 27.2473 10.9677C27.2257 10.9892 27.197 11 27.1612 11H25.9023C25.8664 11 25.8341 10.9892 25.8054 10.9677C25.7839 10.939 25.7731 10.9067 25.7731 10.8709V10.5158C25.7731 10.4943 25.766 10.4799 25.7516 10.4728C25.7373 10.4656 25.7229 10.4728 25.7086 10.4943C25.4073 10.8888 24.9231 11.0861 24.256 11.0861C23.6965 11.0861 23.2445 10.9498 22.9002 10.6772C22.5559 10.4046 22.3837 10.0029 22.3837 9.47208C22.3837 8.91973 22.5774 8.49292 22.9648 8.19164C23.3521 7.88319 23.9045 7.72896 24.6218 7.72896H25.7193C25.7552 7.72896 25.7731 7.71103 25.7731 7.67516V7.43844C25.7731 7.20172 25.7014 7.0188 25.5579 6.88968C25.4145 6.75339 25.1993 6.68524 24.9123 6.68524C24.69 6.68524 24.5035 6.72469 24.3528 6.8036C24.2094 6.88251 24.1161 6.99369 24.0731 7.13716C24.0515 7.21607 24.0049 7.25193 23.9332 7.24476L22.6312 7.0726C22.5451 7.05825 22.5057 7.02597 22.5129 6.97576C22.5415 6.67448 22.6599 6.40189 22.8679 6.158C23.0831 5.91411 23.3629 5.72401 23.7072 5.58772C24.0587 5.45143 24.4497 5.38328 24.8801 5.38328ZM24.6649 9.95628C24.9733 9.95628 25.2351 9.87379 25.4503 9.7088C25.6655 9.54381 25.7731 9.3322 25.7731 9.07396V8.6866C25.7731 8.65073 25.7552 8.6328 25.7193 8.6328H24.9446C24.6218 8.6328 24.3672 8.69377 24.1807 8.81572C24.0013 8.93767 23.9117 9.10983 23.9117 9.3322C23.9117 9.52588 23.9798 9.68011 24.1161 9.79488C24.2524 9.90248 24.4353 9.95628 24.6649 9.95628ZM31.1135 5.39404C31.3718 5.39404 31.5762 5.44425 31.7269 5.54468C31.7843 5.57337 31.8058 5.62717 31.7914 5.70608L31.5655 6.93272C31.5583 7.0188 31.5081 7.04391 31.4148 7.00804C31.3072 6.97217 31.1817 6.95424 31.0382 6.95424C30.9808 6.95424 30.9019 6.96141 30.8015 6.97576C30.5433 6.99728 30.3245 7.09412 30.1451 7.26628C29.9658 7.43127 29.8761 7.65364 29.8761 7.9334V10.8709C29.8761 10.9067 29.8618 10.939 29.8331 10.9677C29.8116 10.9892 29.7829 11 29.747 11H28.4881C28.4522 11 28.42 10.9892 28.3913 10.9677C28.3697 10.939 28.359 10.9067 28.359 10.8709V5.59848C28.359 5.56261 28.3697 5.53392 28.3913 5.5124C28.42 5.48371 28.4522 5.46936 28.4881 5.46936H29.747C29.7829 5.46936 29.8116 5.48371 29.8331 5.5124C29.8618 5.53392 29.8761 5.56261 29.8761 5.59848V6.00736C29.8761 6.02888 29.8833 6.04323 29.8977 6.0504C29.912 6.05757 29.9228 6.05399 29.9299 6.03964C30.2241 5.60924 30.6186 5.39404 31.1135 5.39404ZM35.7739 3.59712C35.7739 3.56125 35.7846 3.53256 35.8062 3.51104C35.8349 3.48235 35.8671 3.468 35.903 3.468H37.1619C37.1978 3.468 37.2265 3.48235 37.248 3.51104C37.2767 3.53256 37.291 3.56125 37.291 3.59712V10.8709C37.291 10.9067 37.2767 10.939 37.248 10.9677C37.2265 10.9892 37.1978 11 37.1619 11H35.903C35.8671 11 35.8349 10.9892 35.8062 10.9677C35.7846 10.939 35.7739 10.9067 35.7739 10.8709V10.5158C35.7739 10.4943 35.7667 10.4835 35.7524 10.4835C35.738 10.4763 35.7237 10.4799 35.7093 10.4943C35.408 10.8888 34.9956 11.0861 34.4719 11.0861C33.9698 11.0861 33.5358 10.9462 33.17 10.6664C32.8113 10.3867 32.5531 10.0029 32.3952 9.51512C32.2733 9.14211 32.2123 8.70812 32.2123 8.21316C32.2123 7.70385 32.2769 7.25911 32.406 6.87892C32.571 6.41983 32.8292 6.05757 33.1807 5.79216C33.5394 5.51957 33.9806 5.38328 34.5042 5.38328C35.0207 5.38328 35.4224 5.56261 35.7093 5.92128C35.7237 5.9428 35.738 5.94997 35.7524 5.9428C35.7667 5.93563 35.7739 5.92128 35.7739 5.89976V3.59712ZM35.5479 9.32144C35.6914 9.05603 35.7631 8.69377 35.7631 8.23468C35.7631 7.75407 35.6842 7.37747 35.5264 7.10488C35.3614 6.82512 35.1211 6.68524 34.8055 6.68524C34.4683 6.68524 34.2137 6.82512 34.0415 7.10488C33.8622 7.38464 33.7725 7.76483 33.7725 8.24544C33.7725 8.67584 33.8478 9.03451 33.9985 9.32144C34.1778 9.62989 34.4432 9.78412 34.7947 9.78412C35.1175 9.78412 35.3686 9.62989 35.5479 9.32144ZM43.3318 7.6644C43.3748 7.93699 43.3892 8.24185 43.3748 8.579C43.3676 8.66508 43.321 8.70812 43.2349 8.70812H39.9101C39.8671 8.70812 39.8527 8.72605 39.8671 8.76192C39.8886 8.90539 39.928 9.04885 39.9854 9.19232C40.1719 9.59403 40.5521 9.79488 41.126 9.79488C41.5851 9.78771 41.9473 9.6012 42.2127 9.23536C42.2414 9.19232 42.2737 9.1708 42.3096 9.1708C42.3311 9.1708 42.3562 9.18515 42.3849 9.21384L43.1596 9.9778C43.1955 10.0137 43.2134 10.0459 43.2134 10.0746C43.2134 10.089 43.1991 10.1177 43.1704 10.1607C42.9337 10.4548 42.6288 10.6844 42.2558 10.8494C41.8828 11.0072 41.4739 11.0861 41.0291 11.0861C40.4122 11.0861 39.8886 10.9462 39.4582 10.6664C39.0349 10.3867 38.7301 9.99573 38.5436 9.4936C38.3929 9.13493 38.3176 8.66508 38.3176 8.08404C38.3176 7.68951 38.3714 7.3416 38.479 7.04032C38.644 6.53101 38.9309 6.12572 39.3398 5.82444C39.7559 5.52316 40.2472 5.37252 40.8139 5.37252C41.5313 5.37252 42.1051 5.58055 42.5355 5.9966C42.9731 6.41265 43.2385 6.96859 43.3318 7.6644ZM40.8247 6.68524C40.3728 6.68524 40.0751 6.89685 39.9316 7.32008C39.9029 7.41333 39.8778 7.52811 39.8563 7.6644C39.8563 7.70027 39.8742 7.7182 39.9101 7.7182H41.7716C41.8146 7.7182 41.829 7.70027 41.8146 7.6644C41.7787 7.45637 41.7608 7.35595 41.7608 7.36312C41.6963 7.14792 41.5815 6.98293 41.4165 6.86816C41.2587 6.74621 41.0614 6.68524 40.8247 6.68524ZM47.1935 5.38328C47.7674 5.38328 48.2301 5.55903 48.5816 5.91052C48.9331 6.26201 49.1088 6.73904 49.1088 7.3416V10.8709C49.1088 10.9067 49.0945 10.939 49.0658 10.9677C49.0442 10.9892 49.0156 11 48.9797 11H47.7208C47.6849 11 47.6526 10.9892 47.6239 10.9677C47.6024 10.939 47.5916 10.9067 47.5916 10.8709V7.65364C47.5916 7.36671 47.5092 7.13357 47.3442 6.95424C47.1864 6.77491 46.9747 6.68524 46.7093 6.68524C46.4439 6.68524 46.2287 6.77491 46.0637 6.95424C45.9059 7.13357 45.827 7.36671 45.827 7.65364V10.8709C45.827 10.9067 45.8127 10.939 45.784 10.9677C45.7624 10.9892 45.7338 11 45.6979 11H44.439C44.4031 11 44.3708 10.9892 44.3421 10.9677C44.3206 10.939 44.3098 10.9067 44.3098 10.8709V5.59848C44.3098 5.56261 44.3206 5.53392 44.3421 5.5124C44.3708 5.48371 44.4031 5.46936 44.439 5.46936H45.6979C45.7338 5.46936 45.7624 5.48371 45.784 5.5124C45.8127 5.53392 45.827 5.56261 45.827 5.59848V5.97508C45.827 5.9966 45.8342 6.01095 45.8485 6.01812C45.8629 6.02529 45.8736 6.02171 45.8808 6.00736C46.1749 5.59131 46.6125 5.38328 47.1935 5.38328ZM54.7908 11.0861C54.1883 11.0861 53.6718 10.9283 53.2414 10.6126C52.811 10.297 52.5169 9.86661 52.3591 9.32144C52.2587 8.98429 52.2084 8.61845 52.2084 8.22392C52.2084 7.80069 52.2587 7.42051 52.3591 7.08336C52.5241 6.55253 52.8218 6.13648 53.2522 5.8352C53.6826 5.53392 54.199 5.38328 54.8016 5.38328C55.3898 5.38328 55.8919 5.53392 56.308 5.8352C56.7241 6.12931 57.0182 6.54177 57.1903 7.0726C57.3051 7.43127 57.3625 7.80787 57.3625 8.2024C57.3625 8.58976 57.3123 8.95201 57.2118 9.28916C57.054 9.84868 56.7599 10.2898 56.3295 10.6126C55.9063 10.9283 55.3934 11.0861 54.7908 11.0861ZM54.7908 9.78412C55.0276 9.78412 55.2284 9.71239 55.3934 9.56892C55.5584 9.42545 55.6767 9.22819 55.7485 8.97712C55.8059 8.74757 55.8346 8.49651 55.8346 8.22392C55.8346 7.92264 55.8059 7.66799 55.7485 7.45996C55.6696 7.21607 55.5476 7.02597 55.3826 6.88968C55.2177 6.75339 55.0168 6.68524 54.7801 6.68524C54.5362 6.68524 54.3317 6.75339 54.1668 6.88968C54.0089 7.02597 53.8942 7.21607 53.8224 7.45996C53.7651 7.63212 53.7364 7.88677 53.7364 8.22392C53.7364 8.54672 53.7615 8.79779 53.8117 8.97712C53.8834 9.22819 54.0018 9.42545 54.1668 9.56892C54.3389 9.71239 54.5469 9.78412 54.7908 9.78412ZM61.3433 5.4586C61.3792 5.4586 61.4079 5.47295 61.4294 5.50164C61.4581 5.52316 61.4725 5.55185 61.4725 5.58772V6.60992C61.4725 6.64579 61.4581 6.67807 61.4294 6.70676C61.4079 6.72828 61.3792 6.73904 61.3433 6.73904H60.2996C60.2638 6.73904 60.2458 6.75697 60.2458 6.79284V10.8709C60.2458 10.9067 60.2315 10.939 60.2028 10.9677C60.1813 10.9892 60.1526 11 60.1167 11H58.8578C58.8219 11 58.7896 10.9892 58.7609 10.9677C58.7394 10.939 58.7287 10.9067 58.7287 10.8709V6.79284C58.7287 6.75697 58.7107 6.73904 58.6749 6.73904H58.04C58.0042 6.73904 57.9719 6.72828 57.9432 6.70676C57.9217 6.67807 57.9109 6.64579 57.9109 6.60992V5.58772C57.9109 5.55185 57.9217 5.52316 57.9432 5.50164C57.9719 5.47295 58.0042 5.4586 58.04 5.4586H58.6749C58.7107 5.4586 58.7287 5.44067 58.7287 5.4048V5.16808C58.7287 4.72333 58.7968 4.37901 58.9331 4.13512C59.0694 3.88405 59.2882 3.70831 59.5895 3.60788C59.8979 3.50028 60.3211 3.45365 60.8591 3.468H61.268C61.3039 3.468 61.3326 3.48235 61.3541 3.51104C61.3828 3.53256 61.3971 3.56125 61.3971 3.59712V4.46868C61.3971 4.50455 61.3828 4.53683 61.3541 4.56552C61.3326 4.58704 61.3039 4.5978 61.268 4.5978H60.9129C60.6619 4.60497 60.4861 4.65877 60.3857 4.7592C60.2925 4.85245 60.2458 5.0282 60.2458 5.28644V5.4048C60.2458 5.44067 60.2638 5.4586 60.2996 5.4586H61.3433ZM64.7318 11C64.696 11 64.6637 10.9892 64.635 10.9677C64.6135 10.939 64.6027 10.9067 64.6027 10.8709V3.59712C64.6027 3.56125 64.6135 3.53256 64.635 3.51104C64.6637 3.48235 64.696 3.468 64.7318 3.468H65.9907C66.0266 3.468 66.0553 3.48235 66.0768 3.51104C66.1055 3.53256 66.1199 3.56125 66.1199 3.59712V9.64424C66.1199 9.68011 66.1378 9.69804 66.1737 9.69804H69.6922C69.728 9.69804 69.7567 9.71239 69.7783 9.74108C69.807 9.7626 69.8213 9.79129 69.8213 9.82716V10.8709C69.8213 10.9067 69.807 10.939 69.7783 10.9677C69.7567 10.9892 69.728 11 69.6922 11H64.7318ZM73.106 11.0861C72.5034 11.0861 71.9869 10.9283 71.5565 10.6126C71.1261 10.297 70.832 9.86661 70.6742 9.32144C70.5738 8.98429 70.5236 8.61845 70.5236 8.22392C70.5236 7.80069 70.5738 7.42051 70.6742 7.08336C70.8392 6.55253 71.1369 6.13648 71.5673 5.8352C71.9977 5.53392 72.5142 5.38328 73.1167 5.38328C73.7049 5.38328 74.2071 5.53392 74.6231 5.8352C75.0392 6.12931 75.3333 6.54177 75.5054 7.0726C75.6202 7.43127 75.6776 7.80787 75.6776 8.2024C75.6776 8.58976 75.6274 8.95201 75.527 9.28916C75.3691 9.84868 75.075 10.2898 74.6446 10.6126C74.2214 10.9283 73.7085 11.0861 73.106 11.0861ZM73.106 9.78412C73.3427 9.78412 73.5435 9.71239 73.7085 9.56892C73.8735 9.42545 73.9919 9.22819 74.0636 8.97712C74.121 8.74757 74.1497 8.49651 74.1497 8.22392C74.1497 7.92264 74.121 7.66799 74.0636 7.45996C73.9847 7.21607 73.8627 7.02597 73.6978 6.88968C73.5328 6.75339 73.3319 6.68524 73.0952 6.68524C72.8513 6.68524 72.6469 6.75339 72.4819 6.88968C72.3241 7.02597 72.2093 7.21607 72.1376 7.45996C72.0802 7.63212 72.0515 7.88677 72.0515 8.22392C72.0515 8.54672 72.0766 8.79779 72.1268 8.97712C72.1985 9.22819 72.3169 9.42545 72.4819 9.56892C72.654 9.71239 72.8621 9.78412 73.106 9.78412ZM77.8868 11C77.8151 11 77.7685 10.9641 77.747 10.8924L76.0254 5.60924C76.0182 5.59489 76.0146 5.57696 76.0146 5.55544C76.0146 5.49088 76.0541 5.4586 76.133 5.4586H77.521C77.5999 5.4586 77.6501 5.49447 77.6716 5.5662L78.554 8.82648C78.5611 8.848 78.5719 8.85876 78.5862 8.85876C78.6006 8.85876 78.6113 8.848 78.6185 8.82648L79.5008 5.5662C79.5224 5.49447 79.5726 5.4586 79.6515 5.4586L81.0395 5.48012C81.0826 5.48012 81.1148 5.49447 81.1364 5.52316C81.1579 5.54468 81.1615 5.58055 81.1471 5.63076L79.4363 10.8924C79.4148 10.9641 79.3681 11 79.2964 11H77.8868ZM86.4769 7.6644C86.5199 7.93699 86.5342 8.24185 86.5199 8.579C86.5127 8.66508 86.4661 8.70812 86.38 8.70812H83.0552C83.0121 8.70812 82.9978 8.72605 83.0121 8.76192C83.0337 8.90539 83.0731 9.04885 83.1305 9.19232C83.317 9.59403 83.6972 9.79488 84.2711 9.79488C84.7302 9.78771 85.0924 9.6012 85.3578 9.23536C85.3865 9.19232 85.4188 9.1708 85.4547 9.1708C85.4762 9.1708 85.5013 9.18515 85.53 9.21384L86.3047 9.9778C86.3406 10.0137 86.3585 10.0459 86.3585 10.0746C86.3585 10.089 86.3442 10.1177 86.3155 10.1607C86.0787 10.4548 85.7739 10.6844 85.4009 10.8494C85.0278 11.0072 84.619 11.0861 84.1742 11.0861C83.5573 11.0861 83.0337 10.9462 82.6033 10.6664C82.18 10.3867 81.8752 9.99573 81.6887 9.4936C81.538 9.13493 81.4627 8.66508 81.4627 8.08404C81.4627 7.68951 81.5165 7.3416 81.6241 7.04032C81.7891 6.53101 82.076 6.12572 82.4849 5.82444C82.901 5.52316 83.3923 5.37252 83.959 5.37252C84.6764 5.37252 85.2502 5.58055 85.6806 5.9966C86.1182 6.41265 86.3836 6.96859 86.4769 7.6644ZM83.9698 6.68524C83.5179 6.68524 83.2202 6.89685 83.0767 7.32008C83.048 7.41333 83.0229 7.52811 83.0014 7.6644C83.0014 7.70027 83.0193 7.7182 83.0552 7.7182H84.9167C84.9597 7.7182 84.974 7.70027 84.9597 7.6644C84.9238 7.45637 84.9059 7.35595 84.9059 7.36312C84.8413 7.14792 84.7266 6.98293 84.5616 6.86816C84.4038 6.74621 84.2065 6.68524 83.9698 6.68524Z" fill="#0E8773"/>
<defs>
<linearGradient id="paint0_linear_77_112" x1="9.12265" y1="3.42323" x2="1.96578" y2="11.7033" gradientUnits="userSpaceOnUse">
<stop stop-color="#04A68B"/>
<stop offset="1" stop-color="#017562"/>
</linearGradient>
<clipPath id="clip0_77_112">
<rect width="12.6579" height="13" fill="white"/>
</clipPath>
</defs>
</svg>
