<svg width="51" height="13" viewBox="0 0 51 13" fill="none" xmlns="http://www.w3.org/2000/svg">
<path d="M13.4307 9.3063C17.3621 12.642 21.305 12.6462 25.2461 9.29663C24.6612 11.05 22.2608 13.0643 19.1789 12.9985C16.2129 12.935 13.9321 10.9104 13.4307 9.3063Z" fill="#F40009"/>
<path d="M49.9704 2.14546C49.2067 2.15633 48.4424 2.16238 47.6787 2.14244C47.4202 2.13579 47.315 2.22823 47.2268 2.45782C46.9326 3.22634 46.613 3.9858 46.2825 4.79843C46.2178 4.6637 46.1737 4.5773 46.1338 4.48909C45.8142 3.77796 45.4964 3.06684 45.1762 2.35632C45.1333 2.26086 45.1134 2.14727 44.9605 2.14787C44.0573 2.1521 43.1546 2.14969 42.223 2.14969C42.3112 2.36719 42.3873 2.55449 42.4683 2.75387C42.4145 2.75387 42.3891 2.76173 42.3782 2.75266C41.3572 1.8911 40.2328 1.74005 39.0087 2.26388C38.958 2.28563 38.8891 2.33638 38.8631 2.24757C38.8202 2.09833 38.7036 2.1515 38.6154 2.1509C37.8614 2.14667 37.1073 2.15633 36.3539 2.14365C36.1467 2.14002 36.1044 2.21373 36.1092 2.40103C36.1207 2.86444 36.1129 3.32785 36.1129 3.80213C36.0706 3.78703 36.0561 3.78642 36.0536 3.78038C35.4392 2.32309 33.6411 1.47844 31.9585 2.25904C31.9077 2.28261 31.8322 2.33457 31.8092 2.25663C31.7603 2.08987 31.6328 2.1521 31.5374 2.1515C30.7936 2.14667 30.0493 2.15513 29.3055 2.14425C29.1116 2.14183 29.0463 2.19198 29.0517 2.39197C29.0656 2.89465 29.0566 3.39854 29.0566 3.90122C28.3835 2.60041 27.2978 1.99804 25.8792 1.97206C24.4612 1.94608 23.3386 2.49226 22.6208 3.82026C22.4148 2.92304 21.932 2.32128 21.0789 2.08202C20.2723 1.85605 19.4917 1.93097 18.751 2.45359C18.7891 2.20829 18.7148 2.14062 18.5148 2.14365C17.7511 2.15512 16.9868 2.15392 16.2231 2.14425C16.0346 2.14183 15.9845 2.20406 15.9893 2.38472C16.0008 2.83967 15.9929 3.29462 15.9929 3.83657C15.2546 2.48561 14.1356 1.94849 12.7255 1.97206C11.305 1.99562 10.2211 2.60766 9.53297 3.8837V0.0114795L7.27876 0C6.43955 1.08149 5.60034 2.16238 4.75206 3.25474C4.66204 3.13995 4.58833 3.0463 4.51522 2.95204C3.75697 1.97145 2.99751 0.990258 2.23805 0.00966694C1.4937 0.0114795 0.74874 0.0138962 0.00438461 0.0157088C0.00317625 0.856129 0.00196788 1.69595 0.0013637 2.53637C0.0013637 4.3169 0.0013637 6.09743 0.0013637 7.87796C0.0013637 8.03807 -0.0318664 8.19395 0.229745 8.18972C1.0025 8.17642 1.77585 8.17945 2.54921 8.18851C2.74617 8.19092 2.78242 8.10634 2.7794 7.93656C2.77155 7.50638 2.77699 7.07621 2.77699 6.64603C2.77699 6.1657 2.77396 5.68598 2.78122 5.20565C2.78182 5.15007 2.70932 4.98875 2.89601 5.06306C3.07485 5.3283 3.25067 5.59595 3.43373 5.85877C3.64459 6.16268 3.80047 6.57896 4.0929 6.73122C4.38593 6.88407 4.81913 6.75961 5.18949 6.77895C5.38404 6.78922 5.49702 6.72397 5.60336 6.56204C5.9411 6.04788 6.29696 5.54641 6.69633 4.96639V5.22438C6.69633 6.14576 6.70177 7.06714 6.6921 7.98852C6.68968 8.18428 6.74164 8.24288 6.94163 8.23986C7.72525 8.22838 8.51009 8.22718 9.29372 8.23986C9.51364 8.24349 9.56137 8.16917 9.55593 7.96677C9.54264 7.46288 9.5517 6.95779 9.5517 6.4539C10.2205 7.76679 11.3147 8.38426 12.7406 8.40843C14.1526 8.43199 15.2715 7.86587 15.9953 6.51492C15.9953 7.06895 16.0056 7.52995 15.9905 7.98973C15.9838 8.19213 16.0521 8.24168 16.2461 8.23866C16.9898 8.22838 17.7342 8.22536 18.4773 8.23986C18.7003 8.24409 18.7661 8.18911 18.7631 7.96013C18.7498 6.91851 18.7631 5.8769 18.7522 4.83589C18.7498 4.63832 18.8338 4.54105 18.9933 4.47459C19.4875 4.26735 19.9044 4.54226 19.9104 5.09871C19.9207 6.05997 19.9189 7.02122 19.9104 7.98309C19.9086 8.1728 19.9497 8.24349 20.1563 8.24047C20.9104 8.22838 21.6644 8.22718 22.4178 8.24047C22.6389 8.2447 22.6867 8.16857 22.6794 7.96677C22.6649 7.5517 22.6752 7.13602 22.6752 6.63334C23.4401 7.93717 24.5596 8.45133 25.9384 8.40722C27.3395 8.36251 28.4083 7.73839 29.0602 6.44967V6.55238C29.0602 7.87433 29.065 9.19629 29.0554 10.5182C29.0536 10.7303 29.1122 10.7853 29.3218 10.7817C30.0553 10.7684 30.7894 10.7678 31.5229 10.7817C31.7422 10.7859 31.8117 10.7388 31.8074 10.5062C31.7911 9.67782 31.8014 8.84888 31.8014 8.00967C33.6786 8.72986 35.1166 8.25436 36.1159 6.45692C36.1159 7.84896 36.1201 9.17937 36.1116 10.5098C36.1104 10.7104 36.1497 10.7853 36.3702 10.7811C37.1236 10.7666 37.8783 10.769 38.6317 10.7805C38.8214 10.7835 38.8697 10.7291 38.8637 10.5454C38.8504 10.105 38.8595 9.66453 38.8595 9.22348V7.98067C40.008 8.5045 41.0913 8.4906 42.0925 7.7692C43.0906 7.04962 43.4452 6.0219 43.3606 4.73862C43.4489 4.90718 43.502 4.99781 43.5449 5.09388C43.9364 5.95846 44.3068 6.83332 44.7249 7.68522C44.8953 8.03202 44.8977 8.31418 44.7388 8.66158C44.4288 9.34069 44.1672 10.0415 43.8718 10.7666C44.8125 10.7666 45.7139 10.7635 46.616 10.7696C46.7731 10.7708 46.7852 10.6608 46.825 10.5623C47.9277 7.8405 49.0291 5.11865 50.1378 2.39922C50.2187 2.20044 50.2 2.14244 49.9722 2.14546H49.9704ZM12.8209 6.19772C12.2639 6.20739 11.7975 5.7609 11.7854 5.20625C11.7733 4.65343 12.2246 4.20814 12.7986 4.20573C13.3708 4.20331 13.8215 4.64316 13.8166 5.19961C13.8118 5.74096 13.3653 6.18866 12.8209 6.19772ZM25.8018 6.19772C25.2381 6.20074 24.788 5.75667 24.7856 5.19538C24.7832 4.63047 25.2206 4.20391 25.8012 4.20512C26.3649 4.20633 26.7963 4.62684 26.8 5.17967C26.8036 5.74519 26.3625 6.1947 25.8012 6.19712L25.8018 6.19772ZM33.4544 5.88113C33.1439 6.2521 32.5741 6.35904 32.0787 6.14939C31.8854 6.06782 31.7657 5.9639 31.7941 5.72827C31.8171 5.54158 31.799 5.34945 31.799 5.16034C31.799 4.99056 31.8225 4.81716 31.7941 4.65222C31.7355 4.31267 31.9367 4.1882 32.2044 4.10604C32.7167 3.94895 33.2532 4.11449 33.5179 4.50842C33.7855 4.90718 33.7571 5.51922 33.4544 5.88113ZM40.5331 5.85032C40.2298 6.24364 39.6467 6.36387 39.138 6.14818C38.9447 6.06601 38.8238 5.96209 38.8528 5.72525C38.8758 5.53795 38.8577 5.34582 38.8577 5.1555C38.8577 4.97546 38.8764 4.79299 38.8534 4.61597C38.8202 4.3604 38.9344 4.23533 39.1604 4.14652C39.663 3.94955 40.2322 4.06797 40.53 4.44982C40.8321 4.8377 40.8339 5.46001 40.5337 5.84971L40.5331 5.85032Z" fill="#FFFFFF"/>
</svg>
