<svg width="69" height="14" viewBox="0 0 69 14" fill="none" xmlns="http://www.w3.org/2000/svg">
<g clip-path="url(#clip0_81_34)">
<path fill-rule="evenodd" clip-rule="evenodd" d="M69 3.78381H66.8204V6.50745H62.1V3.78381H59.9211V6.50745H56.1078C55.7715 6.50762 55.4488 6.38231 55.2105 6.15899C54.9722 5.93568 54.8378 5.63258 54.8367 5.31618V3.78381H52.6578V5.31618C52.6569 5.63269 52.5226 5.93595 52.2843 6.1594C52.046 6.38286 51.7232 6.50826 51.3867 6.50809C51.0503 6.50826 50.7275 6.38286 50.4892 6.1594C50.2509 5.93595 50.1165 5.63269 50.1156 5.31618V3.78381H47.9367V5.31618C47.9358 5.63269 47.8015 5.93595 47.5632 6.1594C47.3249 6.38286 47.0021 6.50826 46.6656 6.50809H45.3945V3.78381H43.2163V6.50745H31.5945V8.55145H34.1367V8.8919C34.1367 10.5821 32.6708 11.9566 30.8687 11.9566C29.0666 11.9566 27.6 10.5821 27.6 8.8919V6.50809H25.4218V8.8919C25.4218 11.7085 27.8658 14 30.8694 14C33.8729 14 36.3163 11.7091 36.3163 8.8919V8.55145H46.6663C47.5433 8.55195 48.3875 8.23764 49.0265 7.67263C49.6658 8.23755 50.5103 8.55165 51.3874 8.55081C52.2643 8.55149 53.1084 8.2374 53.7476 7.67263C54.3867 8.23746 55.2309 8.55155 56.1078 8.55081H69V3.78381Z" fill="white"/>
<path fill-rule="evenodd" clip-rule="evenodd" d="M57.2985 12.2799H59.9056V14H62.1406V10.2162H57.2985V12.2799ZM69 0H64.5617V1.89191H69V0Z" fill="white"/>
<path fill-rule="evenodd" clip-rule="evenodd" d="M18.1578 7.189H7.26327V3.78381H18.1578V7.189ZM18.1578 14H0V10.5948H18.1578V14Z" fill="#F15A22"/>
</g>
<defs>
<clipPath id="clip0_81_34">
<rect width="69" height="14" fill="white"/>
</clipPath>
</defs>
</svg>
